#!OML:ASF X:\für Bonn\!DataBase\2005_08_12_Daniel\c3d\Daniel.ASF
:FULLY-SPECIFIED
:DEGREES
3262
root -3.33889 14.513 -3.04497 319.02 -79.8886 -330.864
lowerback 41.6337 -3.52029 -0.768607
upperback 4.26566 -6.03772 -3.15223
thorax -15.5833 -2.88332 -0.115521
lowerneck 8.67365 2.50886 -4.25306
upperneck -2.0092 2.81125 -0.781351
head -2.18039 1.44838 0.355485
rclavicle -6.77856e-014 -6.75868e-015
rhumerus 64.8917 3.63975 -84.5892
rradius 12.6325
rwrist 50.6075
rhand -27.3314 12.2051
rfingers 7.12502
rthumb -0.740179 -17.7734
lclavicle -6.77856e-014 -6.75868e-015
lhumerus 69.274 -1.32809 87.0955
lradius 8.94764
lwrist -63.386
lhand -19.9137 1.61201
lfingers 7.12502
lthumb 6.42316 31.4946
rfemur -37.875 -17.2529 4.11641
rtibia 94.1569
rfoot -4.92328 0.192341
rtoes -5.09182
lfemur -41.8022 5.54608 -18.989
ltibia 87.6359
lfoot -11.5349 -7.70864
ltoes -6.23643
3263
root -3.37574 14.6957 -3.04688 319.586 -79.9029 -331.204
lowerback 41.023 -3.50349 -0.815479
upperback 4.21284 -6.00129 -3.09908
thorax -15.4277 -2.86515 -0.0751394
lowerneck 8.47562 2.53389 -4.35008
upperneck -1.72952 2.85283 -0.675459
head -2.05591 1.46094 0.4075
rclavicle -8.99501e-014 1.27222e-014
rhumerus 64.5766 3.49069 -84.9367
rradius 12.5957
rwrist 51.2059
rhand -27.2255 12.1542
rfingers 7.12502
rthumb -0.63789 -17.8246
lclavicle -8.99501e-014 1.27222e-014
lhumerus 68.8697 -1.31875 87.1576
lradius 9.10225
lwrist -63.2991
lhand -19.7324 1.81117
lfingers 7.12502
lthumb 6.59818 31.6884
rfemur -36.8869 -16.6514 4.49103
rtibia 92.2687
rfoot -4.42588 -0.479411
rtoes -5.26277
lfemur -40.5626 5.01058 -19.027
ltibia 85.6452
lfoot -11.3103 -7.2472
ltoes -6.33319
3264
root -3.41344 14.8756 -3.04817 320.189 -79.9249 -331.598
lowerback 40.3979 -3.48809 -0.859567
upperback 4.17673 -5.96362 -3.0366
thorax -15.2424 -2.84776 -0.0281344
lowerneck 8.17441 2.56594 -4.44861
upperneck -1.36402 2.91042 -0.567863
head -1.88567 1.47971 0.460905
rclavicle 4.4329e-014 3.18055e-015
rhumerus 64.2899 3.29178 -85.422
rradius 12.5321
rwrist 51.9905
rhand -27.1093 12.2836
rfingers 7.12502
rthumb -0.52565 -17.6955
lclavicle 4.4329e-014 3.18055e-015
lhumerus 68.5119 -1.29507 87.2257
lradius 9.19183
lwrist -63.3025
lhand -19.6895 1.95701
lfingers 7.12502
lthumb 6.63961 31.8329
rfemur -35.8923 -16.089 4.85289
rtibia 90.4015
rfoot -3.88932 -1.14828
rtoes -5.57495
lfemur -39.2964 4.4713 -19.0433
ltibia 83.639
lfoot -11.0836 -6.79184
ltoes -6.32928
3265
root -3.45311 15.053 -3.0503 320.769 -79.9583 -331.958
lowerback 39.7627 -3.46696 -0.906955
upperback 4.11166 -5.91939 -2.97763
thorax -15.0846 -2.82573 0.013972
lowerneck 7.95734 2.58768 -4.53843
upperneck -1.03556 2.94975 -0.458462
head -1.74358 1.4901 0.512957
rclavicle -8.44835e-015 5.56597e-015
rhumerus 63.9831 3.10712 -85.8243
rradius 12.3981
rwrist 52.7519
rhand -27.0283 12.4782
rfingers 7.12502
rthumb -0.447465 -17.501
lclavicle -8.44835e-015 5.56597e-015
lhumerus 68.1117 -1.30547 87.3007
lradius 9.22256
lwrist -63.3063
lhand -19.7696 2.1978
lfingers 7.12502
lthumb 6.56224 32.0761
rfemur -34.9193 -15.5607 5.19299
rtibia 88.5521
rfoot -3.32671 -1.76838
rtoes -5.80766
lfemur -38.0455 3.94596 -19.0509
ltibia 81.6339
lfoot -10.8592 -6.34203
ltoes -6.3861
3266
root -3.49334 15.2281 -3.052 321.425 -79.9828 -332.411
lowerback 39.1591 -3.46526 -0.906864
upperback 4.01163 -5.88446 -2.94803
thorax -14.984 -2.80822 0.00622397
lowerneck 7.80768 2.60223 -4.54701
upperneck -0.673131 2.98234 -0.366861
head -1.60124 1.49647 0.545123
rclavicle 1.39149e-015 -6.75868e-015
rhumerus 63.6111 2.86611 -86.3283
rradius 12.2152
rwrist 53.5633
rhand -26.9647 12.8002
rfingers 7.12502
rthumb -0.385972 -17.1792
lclavicle 1.39149e-015 -6.75868e-015
lhumerus 67.6716 -1.36768 87.3553
lradius 9.18341
lwrist -63.3429
lhand -19.9764 2.3986
lfingers 7.12502
lthumb 6.36263 32.283
rfemur -33.9178 -15.0919 5.5129
rtibia 86.7108
rfoot -2.73178 -2.36195
rtoes -5.98951
lfemur -36.7872 3.39362 -19.0607
ltibia 79.6192
lfoot -10.6432 -5.82881
ltoes -6.44056
3267
root -3.5347 15.3982 -3.05487 322.038 -80.0093 -332.82
lowerback 38.5585 -3.45218 -0.968499
upperback 3.9001 -5.85554 -2.88506
thorax -14.8846 -2.78889 0.0698607
lowerneck 7.67459 2.62829 -4.57694
upperneck -0.327676 3.02573 -0.291364
head -1.46854 1.50903 0.575103
rclavicle -5.69518e-014 0
rhumerus 63.2599 2.725 -86.6812
rradius 12.0166
rwrist 54.2403
rhand -26.899 13.0914
rfingers 7.12502
rthumb -0.322518 -16.8881
lclavicle -5.69518e-014 0
lhumerus 67.2004 -1.39366 87.4397
lradius 9.12499
lwrist -63.3545
lhand -20.3441 2.66131
lfingers 7.12502
lthumb 6.00761 32.5561
rfemur -32.9532 -14.6658 5.81587
rtibia 84.901
rfoot -2.11141 -2.93984
rtoes -6.20315
lfemur -35.5432 2.83451 -19.0638
ltibia 77.6081
lfoot -10.4289 -5.34436
ltoes -6.54942
3268
root -3.57708 15.565 -3.05839 322.66 -80.0333 -333.236
lowerback 37.9735 -3.43907 -1.01882
upperback 3.74841 -5.82179 -2.82644
thorax -14.8362 -2.76555 0.122624
lowerneck 7.599 2.64902 -4.61422
upperneck 0.0337767 3.05739 -0.205537
head -1.34166 1.51508 0.609463
rclavicle 3.39922e-014 9.54166e-015
rhumerus 62.856 2.58709 -86.9751
rradius 11.7668
rwrist 54.8359
rhand -26.9204 13.3215
rfingers 7.12502
rthumb -0.343186 -16.658
lclavicle 3.39922e-014 9.54166e-015
lhumerus 66.6065 -1.41827 87.5241
lradius 9.12288
lwrist -63.2672
lhand -20.8114 2.842
lfingers 7.12502
lthumb 5.55643 32.7492
rfemur -31.9877 -14.2677 6.10269
rtibia 83.1031
rfoot -1.5202 -3.47872
rtoes -6.36875
lfemur -34.3153 2.26061 -19.0704
ltibia 75.606
lfoot -10.1971 -4.79755
ltoes -6.66422
3269
root -3.62067 15.7297 -3.06163 323.177 -80.0543 -333.549
lowerback 37.3709 -3.4073 -1.1224
upperback 3.60008 -5.78394 -2.757
thorax -14.7673 -2.73802 0.21191
lowerneck 7.55471 2.6597 -4.50898
upperneck 0.382768 3.08277 -0.237493
head -1.21927 1.52028 0.582526
rclavicle 1.56046e-014 2.82274e-014
rhumerus 62.4387 2.4263 -87.3568
rradius 11.4988
rwrist 55.477
rhand -27.0095 13.489
rfingers 7.12502
rthumb -0.429271 -16.4904
lclavicle 1.56046e-014 2.82274e-014
lhumerus 65.9825 -1.39095 87.6008
lradius 9.1343
lwrist -63.1157
lhand -21.3279 2.9931
lfingers 7.12502
lthumb 5.05777 32.9127
rfemur -31.0231 -13.9127 6.35142
rtibia 81.3148
rfoot -0.93609 -3.99935
rtoes -6.48884
lfemur -33.0811 1.63768 -19.0979
ltibia 73.5986
lfoot -9.96634 -4.22794
ltoes -6.75039
3270
root -3.66451 15.889 -3.06516 323.766 -80.0816 -333.931
lowerback 36.7446 -3.38329 -1.21032
upperback 3.46753 -5.75154 -2.70483
thorax -14.6704 -2.71545 0.274843
lowerneck 7.48716 2.66015 -4.32814
upperneck 0.718732 3.10188 -0.297027
head -1.09535 1.52342 0.534821
rclavicle 2.48481e-015 5.56597e-015
rhumerus 62.0358 2.34735 -87.4938
rradius 11.2029
rwrist 55.7999
rhand -27.1926 13.4541
rfingers 7.12502
rthumb -0.606144 -16.5248
lclavicle 2.48481e-015 5.56597e-015
lhumerus 65.3572 -1.38579 87.6447
lradius 9.18246
lwrist -62.8439
lhand -21.8457 3.08101
lfingers 7.12502
lthumb 4.55778 33.012
rfemur -30.0744 -13.5566 6.61411
rtibia 79.5598
rfoot -0.440034 -4.51859
rtoes -6.4823
lfemur -31.8869 1.00573 -19.1142
ltibia 71.6093
lfoot -9.74538 -3.63091
ltoes -6.92935
3271
root -3.70921 16.0458 -3.06873 324.385 -80.103 -334.357
lowerback 36.044 -3.37412 -1.28182
upperback 3.41179 -5.72864 -2.65898
thorax -14.5688 -2.6978 0.34776
lowerneck 7.41276 2.65764 -4.18831
upperneck 1.05998 3.11313 -0.365474
head -0.96965 1.52264 0.491904
rclavicle 3.55825e-014 5.96354e-015
rhumerus 61.5613 2.30218 -87.6344
rradius 10.9852
rwrist 56.0476
rhand -27.4725 13.2472
rfingers 7.12502
rthumb -0.876437 -16.7307
lclavicle 3.55825e-014 5.96354e-015
lhumerus 64.67 -1.34351 87.6961
lradius 9.35493
lwrist -62.4793
lhand -22.2879 3.10684
lfingers 7.12502
lthumb 4.13079 33.0465
rfemur -29.1408 -13.2564 6.86518
rtibia 77.8476
rfoot 0.00508839 -4.9697
rtoes -6.65251
lfemur -30.6794 0.335837 -19.1258
ltibia 69.6056
lfoot -9.48002 -2.98565
ltoes -7.05044
3272
root -3.75454 16.2003 -3.07329 324.898 -80.1287 -334.641
lowerback 35.398 -3.3648 -1.33096
upperback 3.24463 -5.69961 -2.62087
thorax -14.5028 -2.67736 0.377068
lowerneck 7.38521 2.65843 -4.19346
upperneck 1.40604 3.11534 -0.308032
head -0.856391 1.51485 0.512405
rclavicle 3.22031e-014 -1.43125e-014
rhumerus 60.7687 2.20178 -87.8313
rradius 11.2181
rwrist 56.3019
rhand -27.5865 12.9083
rfingers 7.12502
rthumb -0.986505 -17.0692
lclavicle 3.22031e-014 -1.43125e-014
lhumerus 63.9307 -1.3101 87.74
lradius 9.55932
lwrist -62.0825
lhand -22.5872 3.02189
lfingers 7.12502
lthumb 3.84178 32.967
rfemur -28.2986 -12.939 7.1058
rtibia 76.2055
rfoot 0.351644 -5.37501
rtoes -6.90967
lfemur -29.5022 -0.33533 -19.1603
ltibia 67.5941
lfoot -9.23033 -2.32504
ltoes -7.14773
3273
root -3.80034 16.3506 -3.07785 325.505 -80.1544 -335.054
lowerback 34.7827 -3.38846 -1.338
upperback 3.07775 -5.69827 -2.58498
thorax -14.4483 -2.67135 0.394877
lowerneck 7.35034 2.68153 -4.29299
upperneck 1.7661 3.13973 -0.193295
head -0.741427 1.51655 0.56592
rclavicle 1.78906e-014 1.43125e-014
rhumerus 59.8147 2.13948 -88.0604
rradius 11.7003
rwrist 56.442
rhand -27.6584 12.5575
rfingers 7.12502
rthumb -1.05599 -17.4196
lclavicle 1.78906e-014 1.43125e-014
lhumerus 63.1567 -1.25768 87.7799
lradius 9.85353
lwrist -61.6598
lhand -22.73 2.94589
lfingers 7.12502
lthumb 3.70384 32.8934
rfemur -27.4305 -12.65 7.35871
rtibia 74.6041
rfoot 0.587769 -5.68746
rtoes -7.35049
lfemur -28.2958 -1.04441 -19.1784
ltibia 65.5766
lfoot -8.9836 -1.62338
ltoes -7.416
3274
root -3.84667 16.4943 -3.0826 325.982 -80.1953 -335.313
lowerback 34.1425 -3.3943 -1.3552
upperback 2.89682 -5.67863 -2.55522
thorax -14.3957 -2.65672 0.402428
lowerneck 7.3507 2.69412 -4.4061
upperneck 2.11442 3.1462 -0.0686561
head -0.636725 1.50914 0.6249
rclavicle 4.49253e-014 -1.59028e-015
rhumerus 58.8599 2.19041 -87.9843
rradius 12.1564
rwrist 56.1702
rhand -27.721 12.1747
rfingers 7.12502
rthumb -1.11649 -17.8021
lclavicle 4.49253e-014 -1.59028e-015
lhumerus 62.4263 -1.17872 87.8054
lradius 10.0878
lwrist -61.229
lhand -22.73 2.73444
lfingers 7.12502
lthumb 3.70384 32.682
rfemur -26.622 -12.3375 7.60798
rtibia 73.0261
rfoot 0.809641 -5.95945
rtoes -7.84531
lfemur -27.1295 -1.75348 -19.207
ltibia 63.5778
lfoot -8.70217 -0.913677
ltoes -7.49903
3275
root -3.8932 16.6319 -3.08803 326.375 -80.2252 -335.477
lowerback 33.5036 -3.3992 -1.39145
upperback 2.70203 -5.66519 -2.52486
thorax -14.3533 -2.64327 0.423534
lowerneck 7.35228 2.70978 -4.54202
upperneck 2.46126 3.15394 0.054258
head -0.533482 1.50204 0.687159
rclavicle 1.73937e-014 -7.55382e-015
rhumerus 57.9458 2.36514 -87.6629
rradius 12.5316
rwrist 55.5765
rhand -27.777 11.9463
rfingers 7.12502
rthumb -1.17057 -18.0303
lclavicle 1.73937e-014 -7.55382e-015
lhumerus 61.7089 -1.41195 87.2633
lradius 10.3525
lwrist -60.278
lhand -22.4732 2.67921
lfingers 7.12502
lthumb 3.95179 32.6223
rfemur -25.8031 -12.0344 7.84211
rtibia 71.4223
rfoot 0.901509 -6.19936
rtoes -8.25185
lfemur -26.0008 -2.48587 -19.2597
ltibia 61.6309
lfoot -8.45562 -0.147448
ltoes -7.57184
